<?xml version="1.0"?>
<svg width="768" height="768" xmlns="http://www.w3.org/2000/svg" xmlns:svg="http://www.w3.org/2000/svg" version="1.1">
 <style>svg {background-color: white; }</style>&quot;
 <metadata id="metadata1">Created by https://svgstud.io and licensed under CC-BY-SA 4.0 license. Please attribute https://svgstud.io</metadata>
 <metadata id="prompt">obsidian scroll, rock-like</metadata>
 <metadata id="version">7</metadata>
 <metadata id="metadata2">https://svgstud.io</metadata>
 <metadata id="uid">2461a739b9703d9fd86c96128100ab022d5577e8c700592aaea20254fd41e497</metadata>
 <g class="layer">
  <title>Layer 1</title>
  <path d="m472.04,715.91c-6.9,-0.05 -15.92,-0.71 -20.04,-1.47c-4.12,-0.76 -10.65,-2.32 -14.5,-3.46c-3.85,-1.15 -9.54,-2.82 -12.63,-3.71c-5.63,-1.63 -5.64,-1.63 -12,1.21c-5.27,2.35 -8.13,2.92 -16.54,3.29c-6.69,0.3 -13.55,-0.1 -20,-1.17c-5.41,-0.89 -12.98,-2.35 -16.83,-3.25c-3.85,-0.89 -9.71,-2.84 -13.03,-4.32c-5.09,-2.28 -7.99,-2.81 -18.74,-3.38c-6.99,-0.37 -16.17,-1.34 -20.4,-2.15c-4.22,-0.81 -10.71,-2.43 -14.41,-3.59c-3.7,-1.17 -8.36,-3.47 -10.36,-5.12c-2,-1.65 -4.71,-5.12 -6.02,-7.72c-2.4,-4.72 -2.4,-4.72 -13.22,-6.48c-5.95,-0.96 -12.21,-2.41 -13.9,-3.2c-1.7,-0.8 -4.45,-3.4 -6.12,-5.77c-2.93,-4.16 -3.26,-4.33 -9.56,-4.92c-3.58,-0.33 -9.38,-1.57 -12.88,-2.75c-3.5,-1.17 -8.75,-3.3 -11.66,-4.73c-2.92,-1.43 -9.87,-5.77 -15.45,-9.66c-6.2,-4.32 -10.94,-8.42 -12.19,-10.56c-1.67,-2.85 -2.12,-5.64 -2.41,-15c-0.25,-8.2 -0.76,-11.97 -1.8,-13.13c-0.79,-0.9 -5.4,-3.05 -10.24,-4.78c-4.84,-1.73 -12.56,-5.07 -17.15,-7.43c-4.59,-2.36 -9.19,-5.43 -10.23,-6.82c-1.35,-1.81 -2.14,-5.35 -2.79,-12.44c-0.49,-5.44 -1.15,-14.4 -1.47,-19.9c-0.43,-7.48 -0.24,-10.41 0.74,-11.62c0.73,-0.89 4.2,-3.48 7.71,-5.75c3.51,-2.27 6.88,-4.12 7.49,-4.12c0.6,0.01 -1.05,1.41 -3.66,3.12c-2.61,1.71 -4.75,3.71 -4.75,4.44c0,0.8 3.23,2.36 7.96,3.86c4.38,1.38 16.39,4.6 26.7,7.15c10.31,2.55 19.35,4.87 20.08,5.15c0.74,0.28 1.18,1.02 0.98,1.64c-0.2,0.62 -3.26,2.71 -6.79,4.64c-4.44,2.43 -6.43,4.11 -6.43,5.43c0,1.42 1.69,2.61 6.5,4.57c5.2,2.12 6.44,3.05 6.22,4.62c-0.15,1.09 1.07,8.7 2.71,16.92c1.64,8.22 3.69,17.28 4.55,20.12c1,3.33 2.67,6.12 4.66,7.8c1.71,1.43 3.34,2.38 3.62,2.11c0.27,-0.28 -0.26,-4.69 -1.2,-9.79c-0.93,-5.11 -2.6,-13.79 -3.71,-19.29c-1.11,-5.5 -2.85,-11.91 -3.88,-14.25c-1.02,-2.34 -1.42,-4.25 -0.9,-4.25c0.53,0 5.12,0.88 10.2,1.95c5.08,1.08 13.3,2.68 18.28,3.57c4.98,0.89 9.64,1.98 10.35,2.42c0.98,0.6 1.04,1.31 0.24,2.81c-0.8,1.48 -0.57,5.39 0.86,15c1.07,7.15 2.42,15.2 3.01,17.88c0.58,2.68 1.32,5.7 1.63,6.72c0.31,1.02 0.93,1.47 1.39,1c0.45,-0.47 1.29,-4.45 1.86,-8.85c0.57,-4.4 1.37,-12.95 1.77,-19c0.41,-6.05 0.65,-11.34 0.54,-11.75c-0.11,-0.41 0.87,-0.75 2.18,-0.75c1.31,0 7.27,1.54 13.25,3.43c5.98,1.89 16.72,5.29 23.87,7.56c7.15,2.28 22.9,6.61 35,9.63c12.1,3.01 24.18,6.19 26.85,7.05c4.4,1.41 4.71,1.7 3.29,3.12c-1.37,1.37 -2.43,1.41 -8.25,0.34c-4.3,-0.79 -7.03,-0.89 -7.65,-0.27c-0.62,0.62 -0.36,5.55 0.73,13.8c0.93,7.06 2.61,17.11 3.72,22.34c1.11,5.23 2.44,10.29 2.95,11.25c0.51,0.96 1.32,1.75 1.8,1.75c0.49,0 1.41,-3.15 2.06,-7c0.65,-3.85 1.54,-7 1.97,-7c0.44,0 2.17,4.39 3.86,9.75c1.68,5.36 3.81,12.45 4.74,15.75c0.92,3.3 2.12,6.56 2.67,7.25c0.55,0.69 1.8,1.25 2.78,1.25c0.97,0 2,-0.61 2.29,-1.37c0.29,-0.75 -0.1,-8.74 -0.87,-17.75c-0.76,-9.01 -2.08,-21.53 -2.91,-27.82c-0.84,-6.29 -1.53,-13.6 -1.53,-16.25c0,-3.18 0.42,-4.81 1.25,-4.81c0.69,0 4.4,0.65 8.25,1.44c3.85,0.79 12.62,1.95 19.5,2.58c6.88,0.63 13.1,1.33 13.83,1.56c0.83,0.26 -0.76,2.33 -4.18,5.45c-3.03,2.77 -6.66,7.36 -8.08,10.2c-1.41,2.84 -2.57,6.49 -2.57,8.1c0,2.94 0,2.94 2.07,0.3c1.14,-1.44 2.49,-2.63 3,-2.63c0.51,0 0.94,4.39 0.95,9.75c0,5.36 0.4,10.37 0.88,11.12c0.64,1.01 1.15,0.48 1.95,-2c0.59,-1.85 2.42,-8.32 4.06,-14.37c1.64,-6.05 4.28,-14.15 5.87,-18c2.9,-7 2.9,-7 8.31,-6.7c2.98,0.16 16.19,1.43 29.36,2.81c13.18,1.39 24.31,2.74 24.73,3c0.43,0.27 14.95,0.7 32.27,0.97c28.57,0.43 32.62,0.29 43.77,-1.59c6.75,-1.13 13.75,-2.54 15.56,-3.11c1.8,-0.58 4.63,-2.2 6.3,-3.6c1.67,-1.41 4.57,-4.95 6.45,-7.89c1.87,-2.93 5.18,-6.58 7.34,-8.11c2.16,-1.53 5.44,-3.64 7.28,-4.69c3.35,-1.91 3.35,-1.91 0.35,-2.73c-1.65,-0.46 -15.6,-3.08 -31,-5.84c-15.4,-2.75 -38.58,-6.57 -51.5,-8.48c-12.93,-1.91 -30.48,-4.81 -39,-6.44c-8.52,-1.63 -23.82,-4.37 -34,-6.1c-10.18,-1.73 -21.2,-3.83 -24.49,-4.66c-3.3,-0.84 -6.3,-1.71 -6.68,-1.95c-0.38,-0.23 -0.06,-1.65 0.72,-3.14c1.14,-2.21 1.17,-2.96 0.13,-4c-0.82,-0.82 -6.77,-1.62 -16.88,-2.26c-8.58,-0.55 -19.36,-1.71 -23.95,-2.58c-4.59,-0.87 -16.17,-3.59 -25.72,-6.05c-9.56,-2.46 -20.16,-5.52 -23.57,-6.8c-3.41,-1.28 -8.02,-3.26 -10.25,-4.4c-2.24,-1.14 -4.32,-2.74 -4.63,-3.54c-0.31,-0.81 0.01,-1.95 0.71,-2.53c0.7,-0.58 7.7,-2.59 15.54,-4.47c7.84,-1.88 14.63,-3.8 15.08,-4.27c0.46,-0.47 0.98,-3.77 1.16,-7.33c0.33,-6.49 0.33,-6.49 -13.17,-7.66c-7.43,-0.65 -14.29,-1.22 -15.25,-1.27c-0.96,-0.05 -1.75,-0.54 -1.75,-1.09c0,-0.55 0.64,-1 1.42,-1c0.78,0 6.51,-1.92 12.75,-4.28c8.4,-3.17 13.68,-5.96 20.42,-10.81c5,-3.59 10.51,-7.12 12.24,-7.84c1.73,-0.72 2.94,-1.64 2.69,-2.04c-0.25,-0.41 -2.84,-0.55 -5.74,-0.32c-2.9,0.23 -16.45,1.99 -30.1,3.9c-13.66,1.92 -30.05,4.84 -36.43,6.5c-6.38,1.65 -13.21,3.66 -15.17,4.47c-1.97,0.8 -4.48,2.55 -5.58,3.89c-1.44,1.76 -4.65,3.15 -11.5,5c-5.22,1.42 -17.51,3.93 -27.3,5.58c-9.79,1.66 -22.84,4.32 -29,5.92c-6.16,1.6 -15.48,4.51 -20.7,6.46c-5.22,1.96 -9.64,3.56 -9.81,3.57c-0.16,0 0.83,-1.01 2.22,-2.25c1.38,-1.24 2.64,-2.85 2.8,-3.59c0.2,-0.91 -2.57,-2.1 -8.71,-3.74c-4.95,-1.32 -17.78,-3.53 -28.5,-4.91c-10.72,-1.38 -23.62,-3.43 -28.66,-4.56c-5.03,-1.13 -12.68,-3.75 -17,-5.82c-4.31,-2.07 -10,-4.37 -12.64,-5.09c-2.64,-0.73 -6.18,-2.62 -7.88,-4.21c-3.02,-2.82 -3.07,-3.03 -2.55,-10.11c0.54,-7.22 0.54,-7.22 -6.45,-22.13c-4.82,-10.27 -7.17,-16.54 -7.54,-20.16c-0.43,-4.17 -0.08,-6.22 1.7,-9.88c1.23,-2.54 4.55,-7.16 7.38,-10.27c2.83,-3.1 8.74,-8.32 13.14,-11.61c4.4,-3.28 9.8,-6.77 12,-7.75c2.2,-0.98 6.35,-2.1 9.23,-2.48c5.03,-0.67 5.25,-0.83 5.9,-4.27c0.37,-1.96 0.14,-12.82 -0.51,-24.12c-0.64,-11.3 -1.44,-24.6 -1.76,-29.55c-0.53,-8.05 -0.38,-9.27 1.43,-11.54c1.12,-1.4 4.33,-3.8 7.15,-5.33c2.81,-1.53 6.45,-3.17 8.09,-3.64c1.63,-0.47 2.97,-0.7 2.97,-0.51c0,0.19 -2.93,1.98 -6.5,3.98c-4.49,2.51 -6.5,4.23 -6.5,5.56c0,1.09 1.19,2.55 2.75,3.35c1.51,0.78 4.55,1.9 6.75,2.49c2.2,0.59 12.78,2.21 23.5,3.6c10.72,1.39 20.73,2.87 22.23,3.28c1.5,0.42 2.78,1.21 2.83,1.76c0.05,0.55 -3.02,1.95 -6.83,3.12c-3.81,1.16 -10.04,3.75 -13.83,5.74c-3.8,2 -8.15,4.78 -9.65,6.18c-1.51,1.4 -2.74,3.54 -2.73,4.75c0,1.22 0.42,2.86 0.93,3.66c0.51,0.82 0.54,2.13 0.05,3.04c-0.47,0.88 -1,19.23 -1.18,40.78c-0.31,37.96 -0.26,39.12 1.51,37.35c1.21,-1.22 2.13,-4.31 2.71,-9.23c0.49,-4.06 1.34,-19.33 1.9,-33.92c0.55,-14.6 0.73,-28.24 0.39,-30.33c-0.62,-3.79 -0.62,-3.79 2.78,-2.32c1.86,0.81 5.42,2.38 7.89,3.5c2.47,1.11 8.9,3.17 14.28,4.56c5.38,1.39 14.6,3.23 20.5,4.08c5.9,0.86 13.42,1.89 16.72,2.3c6,0.75 6,0.75 6.61,41.24c0.34,22.28 0.96,43.11 1.37,46.3c0.42,3.18 0.96,5.59 1.2,5.35c0.24,-0.24 1.06,-5.99 1.83,-12.79c0.77,-6.8 1.91,-21.13 2.54,-31.86c0.65,-11.03 0.84,-25.25 0.45,-32.75c-0.7,-13.25 -0.7,-13.25 12.15,-13.23c12.33,0.02 12.76,0.09 10.72,1.75c-1.18,0.95 -2.61,2.66 -3.2,3.81c-0.58,1.14 -1.36,5.64 -1.73,10c-0.37,4.35 -1.29,10.62 -2.05,13.92c-0.81,3.5 -1.66,15.48 -2.04,28.75c-0.47,16.02 -0.35,22.75 0.41,22.75c0.59,0 3.84,-8.66 7.22,-19.25c3.38,-10.59 7.24,-22.18 8.58,-25.76c1.34,-3.59 3.6,-8.23 5.03,-10.33c1.42,-2.1 2.38,-4.02 2.12,-4.28c-0.25,-0.26 -1.6,0.89 -2.99,2.54c-1.55,1.84 -2.7,2.54 -2.97,1.8c-0.24,-0.67 0.14,-4.6 0.85,-8.72c0.71,-4.12 2.27,-9.58 3.46,-12.13c2.16,-4.61 2.2,-4.64 9.84,-6.29c4.21,-0.91 12.6,-2.01 18.63,-2.45c6.03,-0.43 11.14,-0.66 11.35,-0.5c0.21,0.16 -1.67,2.57 -4.17,5.35c-2.5,2.78 -5.45,6.96 -6.54,9.29c-1.1,2.33 -2.29,5.8 -2.65,7.73c-0.66,3.5 -0.66,3.5 5.37,-3c6.02,-6.5 6.02,-6.5 6.07,-3.34c0.02,1.74 -0.61,6.58 -1.41,10.76c-0.8,4.18 -3.08,11.67 -5.07,16.64c-1.99,4.96 -3.45,9.52 -3.25,10.13c0.2,0.61 2.43,-1.33 4.94,-4.29c2.52,-2.97 5.48,-7.2 6.59,-9.4c1.1,-2.2 2.74,-6.16 3.63,-8.79c0.89,-2.64 2.27,-8.82 3.06,-13.75c0.8,-4.92 2.35,-10.98 3.44,-13.45c2,-4.51 2,-4.51 12.49,-4.51c5.78,0 10.69,0.34 10.93,0.75c0.23,0.41 -0.16,4.57 -0.88,9.25c-0.72,4.68 -2.28,16.15 -3.45,25.5c-1.18,9.35 -2.38,18.57 -2.68,20.5c-0.54,3.5 -0.54,3.5 3.17,0c2.04,-1.93 6.24,-7.77 9.32,-12.99c3.09,-5.22 6.82,-12.65 8.29,-16.5c1.47,-3.86 2.98,-8.7 3.35,-10.76c0.36,-2.06 0.26,-3.75 -0.23,-3.75c-0.49,0 -1.56,0.79 -2.38,1.75c-0.81,0.96 -2.7,3.89 -4.19,6.5c-1.49,2.61 -3.05,4.75 -3.46,4.75c-0.42,0 -0.4,-3.94 0.04,-8.75c0.43,-4.81 1.16,-10.1 1.61,-11.75c0.83,-3 0.83,-3 29.25,-3.11c15.64,-0.06 34.73,-0.54 42.43,-1.06c7.7,-0.53 16.48,-0.68 19.5,-0.34c5.5,0.62 5.5,0.62 1,1.87c-2.48,0.69 -8.08,2.39 -12.46,3.78c-4.38,1.39 -9.13,3.13 -10.57,3.88c-1.44,0.74 -3.15,1.99 -3.81,2.78c-0.92,1.11 -0.9,1.67 0.08,2.47c0.69,0.57 3.06,1.48 5.26,2.04c2.2,0.55 8.36,1.75 13.69,2.67c9.69,1.68 9.69,1.68 4.5,5.88c-4.04,3.26 -6.16,6.14 -9.57,12.95c-2.41,4.82 -4.16,8.99 -3.88,9.26c0.28,0.28 1.87,-0.63 3.53,-2.03c1.66,-1.4 3.35,-2.54 3.75,-2.54c0.41,0 0.5,2.11 0.21,4.69c-0.53,4.69 -0.53,4.69 1.26,2.32c0.99,-1.31 2.82,-4.88 4.07,-7.94c1.25,-3.06 3.55,-7.45 5.1,-9.74c1.56,-2.3 4.02,-5.11 5.47,-6.25c1.45,-1.15 3.97,-2.08 5.6,-2.08c1.63,0 11.13,1.37 21.12,3.05c9.98,1.67 21.08,3.7 24.65,4.5c3.57,0.8 8.19,2.2 10.25,3.11c2.1,0.92 3.74,2.35 3.73,3.24c0,0.88 -0.36,2.15 -0.78,2.82c-0.43,0.67 -4.36,2.82 -8.74,4.78c-4.38,1.97 -10.36,4.79 -13.29,6.29c-2.94,1.49 -6.47,4.03 -7.85,5.65c-2.25,2.64 -2.35,3.07 -0.91,4.12c0.88,0.64 7.11,1.9 13.85,2.79c6.73,0.9 17.64,2.08 24.24,2.62c6.6,0.55 17.73,1.74 24.73,2.64c7.01,0.91 13.53,2.26 14.5,3.02c1.68,1.3 1.65,1.47 -0.39,3.21c-1.19,1.01 -7.71,3.44 -14.5,5.4c-6.79,1.96 -18.86,5.37 -26.84,7.58c-7.98,2.22 -16.98,4.58 -20,5.25c-3.57,0.8 -21.15,1.48 -50,1.93c-43.56,0.7 -44.71,0.77 -54.25,3.3c-5.37,1.42 -12.37,3.98 -15.56,5.68c-3.19,1.7 -7.91,5.11 -10.49,7.59c-2.59,2.47 -4.7,4.92 -4.7,5.43c0,0.51 0.89,1.4 1.97,1.98c1.08,0.58 7.27,2.4 13.75,4.04c6.48,1.63 13.21,2.98 14.96,2.98c1.76,0 4.41,0.46 5.9,1.03c2.29,0.87 3.3,0.63 6.41,-1.52c2.02,-1.41 5.22,-3 7.09,-3.53c1.87,-0.54 8.58,-0.98 14.89,-0.98c6.32,0 18.92,0.48 28.01,1.06c9.09,0.59 17.53,1.48 18.77,1.98c1.24,0.5 2.25,1.36 2.25,1.91c0,0.55 -3.04,1.88 -6.75,2.98c-3.71,1.09 -11.6,3.35 -17.54,5.03c-5.93,1.68 -13.47,4.4 -16.75,6.06c-3.39,1.71 -5.96,3.67 -5.96,4.55c0,0.84 1.46,2.12 3.25,2.85c1.79,0.72 7.32,2.3 12.29,3.5c4.97,1.21 9.68,2.6 10.47,3.09c1.19,0.73 1.05,1.29 -0.83,3.3c-1.55,1.64 -2.6,4.56 -3.32,9.15c-0.57,3.7 -0.76,8.26 -0.41,10.14c0.47,2.47 1.17,3.4 2.57,3.4c1.06,0 2.58,-1.01 3.37,-2.25c0.78,-1.24 1.95,-4.82 2.58,-7.97c0.64,-3.14 1.96,-6.71 2.95,-7.93c1.79,-2.21 1.79,-2.21 11.68,-0.6c5.45,0.89 15.97,2.33 23.4,3.22c7.43,0.88 16.2,1.93 19.5,2.32c3.3,0.39 6,1.16 6,1.71c0,0.55 -4.27,2.38 -9.5,4.08c-5.23,1.69 -10.51,3.62 -11.75,4.28c-1.24,0.67 -2.25,1.63 -2.25,2.14c0,0.51 1.73,1.39 3.84,1.96c2.12,0.57 9.53,1.43 16.48,1.91c8.01,0.56 14.37,0.52 17.4,-0.11c2.63,-0.54 13.11,-1 23.28,-1.02c10.17,-0.02 23.61,0.53 29.85,1.21c6.24,0.68 13.21,1.77 15.49,2.43c2.28,0.66 4.28,1.91 4.45,2.77c0.2,1.04 -1.29,2.24 -4.49,3.61c-2.64,1.13 -8.85,3.25 -13.8,4.72c-4.95,1.47 -11.45,3.43 -14.44,4.35c-2.99,0.92 -5.59,2.18 -5.79,2.79c-0.19,0.62 0.68,1.4 1.94,1.74c1.26,0.34 4.91,0.62 8.11,0.63c3.2,0 15.35,1.4 27,3.1c20.17,2.94 22.33,3.07 45.38,2.65c24.2,-0.44 24.2,-0.44 22.85,2.66c-0.74,1.71 -3.11,6.93 -5.28,11.6c-2.17,4.67 -4.23,9.29 -4.57,10.25c-0.42,1.16 -0.14,1.75 0.83,1.75c0.81,0 3.51,-2.76 5.99,-6.14c2.49,-3.38 6.34,-9.64 8.57,-13.91c2.86,-5.51 5.14,-8.5 7.84,-10.29c2.09,-1.38 9.83,-5.53 17.19,-9.22c7.36,-3.68 16.17,-8.69 19.58,-11.12c3.41,-2.43 6.5,-5.38 6.88,-6.56c0.49,-1.56 0.04,-2.65 -1.7,-4.06c-1.31,-1.06 -4.85,-3.15 -7.88,-4.66c-3.02,-1.51 -10.9,-5.04 -17.5,-7.86c-6.6,-2.81 -16.92,-6.27 -22.93,-7.69c-6.02,-1.42 -19.74,-3.89 -30.5,-5.49c-10.76,-1.6 -25.42,-3.62 -32.56,-4.49c-7.15,-0.88 -13.34,-1.94 -13.77,-2.37c-0.43,-0.43 0.01,-1.51 0.99,-2.38c0.97,-0.88 7.05,-4.37 13.51,-7.76c6.46,-3.38 11.98,-6.55 12.28,-7.03c0.3,-0.48 -1.84,-1.58 -4.74,-2.45c-2.9,-0.86 -9.55,-2.43 -14.78,-3.47c-5.23,-1.04 -15.58,-2.64 -23,-3.54c-7.42,-0.91 -15.86,-2.11 -18.75,-2.65c-2.89,-0.55 -5.25,-1.35 -5.25,-1.77c0,-0.42 1.19,-1.31 2.65,-1.98c1.46,-0.66 7.87,-1.88 14.25,-2.7c6.38,-0.82 13.18,-1.98 15.1,-2.59c1.92,-0.6 6.15,-2.42 9.4,-4.05c3.24,-1.62 20.78,-7.89 38.98,-13.93c18.19,-6.03 36.15,-12.58 39.89,-14.55c3.75,-1.97 7.7,-4.71 8.78,-6.08c1.46,-1.86 1.68,-2.83 0.86,-3.81c-0.6,-0.73 -4.54,-2.65 -8.75,-4.26c-4.21,-1.62 -10.81,-3.4 -14.66,-3.97c-3.85,-0.57 -12.85,-1.51 -20,-2.1c-7.15,-0.58 -21.55,-1.76 -32,-2.61c-10.45,-0.85 -22.83,-2.03 -27.5,-2.62c-4.67,-0.59 -9.32,-1.5 -10.31,-2.02c-1.38,-0.73 -1.55,-1.28 -0.72,-2.29c0.61,-0.73 4.13,-2.44 7.82,-3.81c3.69,-1.36 9.41,-3.01 12.71,-3.67c3.3,-0.65 7.8,-1.63 10,-2.17c2.2,-0.54 9.27,-3.51 15.71,-6.59c6.43,-3.09 11.96,-6.28 12.27,-7.1c0.31,-0.81 -0.23,-2.36 -1.21,-3.44c-0.97,-1.09 -4.88,-3.54 -8.69,-5.46c-3.8,-1.91 -11.5,-4.98 -17.11,-6.82c-5.61,-1.84 -15.17,-4.28 -21.26,-5.43c-6.09,-1.15 -25.39,-3.89 -42.89,-6.1c-17.5,-2.2 -39.02,-4.86 -47.82,-5.91c-8.8,-1.04 -17.74,-2.51 -19.86,-3.27c-3.87,-1.37 -3.87,-1.37 3.95,-2.58c4.3,-0.67 8.88,-1.91 10.18,-2.76c1.29,-0.85 2.18,-2.08 1.96,-2.73c-0.21,-0.66 -2.47,-1.43 -5.02,-1.73c-2.54,-0.3 -4.88,-0.8 -5.2,-1.12c-0.32,-0.31 1.29,-0.87 3.56,-1.24c2.28,-0.36 5.35,-1.28 6.82,-2.04c1.47,-0.77 3.3,-2.55 4.06,-3.97c0.76,-1.42 1.15,-2.83 0.86,-3.12c-0.3,-0.29 -4.53,0.21 -9.42,1.11c-5.36,0.99 -16.83,1.84 -28.89,2.15c-14.59,0.37 -24.46,0.05 -36.5,-1.16c-9.07,-0.91 -22.12,-2.53 -29,-3.6c-6.88,-1.06 -18.12,-2.64 -25,-3.51c-6.88,-0.86 -19.93,-2.68 -29,-4.03c-9.07,-1.36 -22.12,-3.57 -29,-4.9c-6.88,-1.34 -20.38,-3.63 -30,-5.08c-9.62,-1.45 -22.68,-3.93 -29,-5.53c-6.32,-1.59 -13.97,-4.15 -17,-5.69c-5.06,-2.57 -5.5,-3.07 -5.5,-6.23c0,-3.19 0.41,-3.64 5.5,-6.1c3.03,-1.45 10.22,-3.89 16,-5.42c9.85,-2.6 10.79,-3.07 15.2,-7.68c3.63,-3.8 5.59,-7.21 8.66,-15.11c2.19,-5.6 4.91,-13.12 6.05,-16.69c1.13,-3.57 2.94,-10.78 4,-16c1.06,-5.22 2.44,-15.12 3.06,-22c0.63,-6.88 1.37,-14.01 1.65,-15.86c0.28,-1.85 1.67,-4.43 3.09,-5.75c1.42,-1.31 2.97,-2.39 3.44,-2.39c0.47,0 0.85,1.08 0.85,2.41c0,1.48 1.22,3.44 3.14,5.06c1.73,1.45 5.42,3.79 8.21,5.2c2.78,1.42 9.13,3.41 14.1,4.44c5.78,1.19 15.88,2.11 27.94,2.54c18.88,0.68 18.88,0.68 14.26,3.02c-2.54,1.3 -5.32,3.42 -6.18,4.73c-0.85,1.31 -3.3,8.17 -5.44,15.24c-2.14,7.07 -5.54,16.68 -7.56,21.36c-2.03,4.68 -4.53,10.93 -5.58,13.91c-1.04,2.97 -1.89,6.29 -1.89,7.37c0,1.71 0.21,1.79 1.65,0.59c0.91,-0.75 4.93,-5.64 8.93,-10.87c4,-5.22 8.42,-10.85 9.81,-12.5c2.29,-2.71 2.54,-2.8 2.57,-0.91c0.02,1.15 -0.86,5.61 -1.96,9.92c-1.1,4.3 -1.76,8.07 -1.46,8.37c0.3,0.3 1.62,-0.79 2.94,-2.42c1.31,-1.63 4.4,-6.78 6.86,-11.46c2.47,-4.68 6.15,-12.78 8.19,-18c2.03,-5.22 4.54,-12.2 5.58,-15.5c1.03,-3.3 1.88,-7.24 1.88,-8.75c0.01,-1.7 -0.53,-2.75 -1.4,-2.75c-0.78,0 -2.55,1.35 -3.94,3c-1.38,1.65 -2.74,3 -3,3c-0.26,0 0,-1.46 0.58,-3.25c0.57,-1.79 1.73,-4.57 2.57,-6.18c1.48,-2.85 1.44,-3.01 -1.63,-5.57c-1.74,-1.45 -6.51,-4.56 -10.61,-6.9c-4.09,-2.34 -10.73,-5.39 -14.75,-6.78c-4.09,-1.4 -12.37,-3.08 -18.81,-3.8c-6.32,-0.71 -10.6,-1.36 -9.5,-1.44c1.1,-0.08 2.7,-0.69 3.56,-1.36c0.86,-0.67 4.52,-5.27 8.13,-10.22c3.61,-4.95 8.64,-12.38 11.18,-16.5c2.54,-4.13 7.72,-14.3 11.51,-22.61c3.8,-8.3 7.92,-17.87 9.15,-21.26c1.24,-3.4 4,-8.16 6.14,-10.59c2.75,-3.12 5.57,-5.03 9.61,-6.51c3.15,-1.15 6.97,-2.59 8.51,-3.2c1.55,-0.61 3.83,-2.93 5.14,-5.22c1.29,-2.26 3.07,-6.37 3.96,-9.13c0.89,-2.76 3.2,-12.44 5.14,-21.5c2.79,-13.03 4.02,-16.97 5.87,-18.83c1.34,-1.34 3.36,-2.26 4.72,-2.16c1.31,0.11 7.33,0.12 13.38,0.04c8.72,-0.12 14,0.47 25.5,2.83c10.91,2.25 18.59,3.15 31,3.64c9.07,0.35 17.62,0.61 19,0.57c1.38,-0.04 3.61,-0.9 4.98,-1.91c1.36,-1.01 2.73,-2.92 3.05,-4.25c0.53,-2.24 0.77,-2.08 3.37,2.34c1.66,2.83 4.1,5.37 6.06,6.3c1.8,0.85 4.19,2.41 5.31,3.45c1.12,1.05 2.55,4.25 3.16,7.13c0.62,2.87 0.76,5.58 0.32,6.02c-0.45,0.45 -6.41,1.3 -13.26,1.89c-9.34,0.81 -13.26,1.58 -15.7,3.09c-2.18,1.35 -3.58,3.22 -4.24,5.69c-0.54,2.02 -2.39,9.98 -4.12,17.68c-1.72,7.7 -4.72,19.4 -6.66,26c-1.94,6.6 -5.04,18.07 -6.88,25.5c-1.85,7.43 -3.36,14.31 -3.37,15.31c-0.01,0.99 0.44,1.52 1.01,1.17c0.56,-0.35 3.24,-4.99 5.95,-10.31c4.92,-9.67 4.92,-9.67 4.96,-4.17c0.03,3.03 -1.33,12.03 -3.01,20c-1.68,7.97 -5.47,26.2 -8.41,40.5c-2.94,14.3 -5.81,28.03 -6.38,30.5c-0.57,2.47 -1.52,8.55 -2.12,13.5c-0.59,4.95 -1.34,10.46 -1.66,12.25c-0.35,1.94 -0.17,3.25 0.45,3.25c0.57,0 2.6,-3.31 4.52,-7.34c1.92,-4.04 5.34,-12.98 7.61,-19.86c2.27,-6.87 4.77,-13.36 5.56,-14.4c1.31,-1.74 1.44,-1.5 1.47,2.85c0.02,2.61 0.47,4.75 1.01,4.75c0.53,0 1.69,-1.09 2.56,-2.43c0.88,-1.33 3.57,-10.45 5.97,-20.25c2.41,-9.8 6.62,-24.35 9.34,-32.32c2.73,-7.97 7.2,-20.12 9.94,-27c2.74,-6.88 5.95,-15.63 7.13,-19.45c1.18,-3.83 3.26,-11.82 4.63,-17.76c1.37,-5.94 3.15,-14.29 3.97,-18.55c0.81,-4.25 1.48,-8.91 1.48,-10.34c0,-2.59 0.04,-2.6 10.25,-3.22c5.64,-0.34 11.99,-1.12 14.12,-1.73c2.13,-0.61 4.93,-2.25 6.23,-3.65c1.44,-1.56 2.96,-2.3 3.93,-1.93c1.41,0.54 1.51,2.95 0.88,21.46c-0.7,20.85 -0.7,20.85 1.62,22.48c2.19,1.54 2.21,1.65 0.39,2.25c-1.05,0.34 -2.93,1.1 -4.15,1.69c-1.23,0.59 -2.51,1.93 -2.84,2.98c-0.37,1.14 0.09,2.69 1.13,3.84c0.96,1.06 2.92,1.94 4.34,1.95c1.43,0 3.27,0.45 4.1,0.98c1.14,0.74 0.73,0.97 -1.7,0.98c-1.77,0.01 -6.14,1.08 -9.72,2.38c-3.59,1.31 -7.61,3.08 -8.94,3.95c-1.86,1.22 -2.78,3.28 -3.99,8.89c-0.86,4.01 -3.18,15.62 -5.16,25.8c-1.98,10.18 -5.2,25.7 -7.15,34.5c-1.94,8.8 -3.63,18.25 -3.74,21c-0.12,2.75 -1.46,10.95 -2.98,18.23c-1.52,7.27 -2.62,14.25 -2.44,15.5c0.24,1.71 1.37,0.17 4.58,-6.23c2.33,-4.68 7.63,-17.63 11.76,-28.8c4.13,-11.16 9.08,-24.19 10.99,-28.94c1.92,-4.76 3.49,-9.55 3.49,-10.65c0,-1.74 -0.48,-1.55 -3.62,1.44c-3.62,3.45 -3.62,3.45 -2.93,-1.55c0.38,-2.75 1.98,-10.4 3.56,-17c1.57,-6.6 4.03,-15.09 5.46,-18.88c1.44,-3.78 2.46,-7.02 2.28,-7.2c-0.18,-0.18 -1.4,-0.72 -2.71,-1.21c-1.75,-0.65 0.69,-1.06 9.03,-1.55c6.29,-0.36 15.17,-1.56 19.75,-2.66c4.57,-1.1 10.53,-2.96 13.25,-4.12c3.4,-1.47 4.93,-2.71 4.93,-4c0,-1.04 0.63,-1.88 1.39,-1.88c0.76,0 2.4,0.82 3.63,1.82c1.93,1.55 2.23,2.7 2.11,7.96c-0.08,3.38 -2.35,17.3 -5.05,30.93c-2.7,13.63 -5.61,31.54 -6.48,39.79c-0.86,8.25 -2.08,21.97 -2.71,30.5c-0.63,8.53 -0.92,21.46 -0.65,28.74c0.32,8.4 0.96,13.8 1.75,14.75c0.68,0.82 2.93,1.95 5,2.51c2.06,0.55 4.94,1.94 6.4,3.09c1.46,1.15 3.33,3.4 4.16,5.01c1.38,2.66 1.32,4.14 -0.65,16.16c-1.9,11.64 -2.01,13.97 -0.91,19.24c1.06,5.1 1.95,6.65 5.88,10.32c2.55,2.38 7.55,7.16 11.13,10.62c3.58,3.47 7.96,7.29 9.75,8.5c1.79,1.21 3.25,2.56 3.25,3.01c0,0.45 -2.14,1.11 -4.75,1.47c-2.61,0.36 -9.25,1.57 -14.75,2.7c-5.5,1.13 -12.02,3.02 -14.5,4.21c-2.48,1.2 -4.5,2.85 -4.5,3.67c0,1.21 1.55,1.5 8,1.48c4.4,0 12.94,-0.57 18.98,-1.25c6.04,-0.68 15.72,-2.39 21.5,-3.79c5.79,-1.4 11.71,-3.4 13.16,-4.44c2.48,-1.78 2.73,-1.79 4.13,-0.2c0.82,0.94 1.8,2.72 2.18,3.96c0.38,1.25 0.19,6.43 -0.43,11.5c-0.61,5.08 -2.49,14.64 -4.17,21.24c-1.68,6.6 -3.65,15.36 -4.38,19.46c-0.83,4.7 -0.98,8.09 -0.4,9.17c0.5,0.94 2.38,2.02 4.17,2.41c1.79,0.39 7.03,2.06 11.64,3.72c6.08,2.2 9.58,4.17 12.75,7.21c3.89,3.73 4.37,4.68 4.37,8.68c0,2.48 -0.66,9.19 -1.46,14.93c-0.81,5.73 -1.78,14.83 -2.15,20.22c-0.69,9.79 -0.69,9.79 5.36,15.5c3.33,3.13 6.56,6.71 7.18,7.94c0.88,1.74 0.81,2.87 -0.33,5.07c-0.8,1.55 -3.18,4.01 -5.28,5.46c-2.1,1.45 -7.31,4.22 -11.57,6.16c-4.71,2.14 -7.75,4.11 -7.75,5.03c0,0.9 2.7,2.75 6.65,4.54c3.66,1.66 11.2,4.64 16.75,6.62c5.56,1.98 12.58,4.9 15.6,6.5c3.02,1.6 7.22,4.54 9.33,6.53c2.1,1.99 4.24,4.71 4.75,6.05c0.5,1.34 0.92,5.48 0.92,9.21c0,3.72 -1.34,13.1 -2.98,20.82c-1.64,7.73 -3.44,18.12 -4,23.11c-0.82,7.22 -0.71,11.2 0.55,19.66c1.51,10.16 1.5,10.75 -0.33,14.3c-1.05,2.04 -5.28,6.62 -9.41,10.2c-4.12,3.58 -10.38,7.95 -13.91,9.71c-3.53,1.77 -9.72,4.57 -13.75,6.23c-4.03,1.66 -10.78,3.73 -15,4.61c-5.78,1.2 -12.48,1.54 -27.17,1.37c-19.5,-0.22 -19.5,-0.22 -28.5,4.18c-9,4.4 -9,4.4 -30.82,4.56c-21.83,0.15 -21.83,0.15 -27.7,4.27c-3.23,2.27 -7.75,4.78 -10.05,5.59c-2.73,0.97 -8.07,1.48 -15.39,1.48c-11.14,0 -11.25,0.03 -18.77,3.99c-4.17,2.19 -10.18,4.66 -13.38,5.5c-3.82,0.99 -10.11,1.48 -18.35,1.42zm-15.01,-24.91c0.44,0 1.8,-3.04 3.01,-6.75c1.2,-3.71 3.54,-8.89 5.18,-11.5c1.64,-2.61 3.39,-4.49 3.88,-4.19c0.5,0.31 0.93,1.99 0.97,3.75c0.04,1.75 0.44,4.09 0.89,5.19c0.76,1.85 0.9,1.79 1.95,-0.86c0.62,-1.57 2.23,-6.75 3.58,-11.5c1.34,-4.75 3.61,-12.69 5.04,-17.64c1.42,-4.95 2.68,-9.9 2.78,-11c0.17,-1.74 -0.5,-2.04 -5.21,-2.31c-2.98,-0.17 -6.67,0.22 -8.22,0.86c-1.54,0.64 -3.88,2.58 -5.2,4.31c-1.32,1.72 -3.53,5.39 -4.93,8.14c-1.39,2.75 -3.25,7.44 -4.14,10.43c-1.1,3.7 -1.61,9.33 -1.61,17.67c0,6.73 0.27,12.95 0.61,13.82c0.33,0.87 0.97,1.58 1.42,1.58zm70.54,-18.15c0.7,-1.34 2.72,-8.49 4.48,-15.89c1.76,-7.4 3.55,-14.95 3.98,-16.77c0.71,-2.97 0.52,-3.41 -1.8,-4.29c-1.42,-0.54 -3.86,-0.7 -5.42,-0.36c-1.74,0.38 -3.42,1.74 -4.33,3.49c-0.81,1.58 -1.48,3.7 -1.48,4.72c0,1.02 0.51,2.36 1.12,2.97c0.67,0.67 1.34,6.73 1.65,14.85c0.46,11.91 0.69,13.4 1.8,11.28zm101.68,-5.87c0.69,-0.01 3.21,-0.91 5.61,-2c2.4,-1.09 5.16,-1.98 6.13,-1.98c0.98,0 4.58,-3 8.01,-6.66c3.42,-3.66 7.69,-8.95 9.48,-11.75c1.79,-2.8 6.04,-10.64 9.43,-17.41c3.4,-6.78 7.73,-16.62 9.63,-21.87c1.91,-5.25 3.46,-10.17 3.46,-10.93c0,-0.76 -0.45,-1.38 -1,-1.38c-0.55,0 -2.68,1.53 -4.75,3.41c-2.06,1.87 -6.9,8.94 -10.75,15.7c-3.85,6.76 -8.81,14.12 -11.01,16.34c-2.21,2.23 -5.71,5.32 -7.78,6.86c-2.91,2.18 -5.34,5.96 -10.73,16.74c-3.84,7.66 -6.98,14.15 -6.98,14.44c0,0.28 0.56,0.5 1.25,0.49zm-70.87,-143.98c-7.18,0 -11.51,-0.4 -11.95,-1.11c-0.38,-0.61 -0.07,-1.52 0.69,-2.01c0.76,-0.49 3.8,-1.62 6.77,-2.5c4.35,-1.29 7.21,-1.44 14.92,-0.74c5.53,0.5 9.69,1.34 9.91,2c0.2,0.63 -1.75,1.86 -4.35,2.75c-3.24,1.11 -8.26,1.61 -15.99,1.61zm-455.31,-46c0.55,0 2.18,-0.77 3.61,-1.71c1.44,-0.95 5.87,-5.44 9.85,-9.98c3.97,-4.55 7.99,-9.89 8.93,-11.87c0.94,-1.98 1.48,-3.83 1.2,-4.12c-0.29,-0.28 -2.57,0.9 -5.08,2.63c-2.51,1.72 -6.95,6.15 -9.88,9.84c-2.92,3.69 -6,7.83 -6.83,9.21c-0.84,1.38 -1.81,3.29 -2.16,4.25c-0.36,0.96 -0.2,1.75 0.36,1.75zm344.75,-5.02c0.92,0 2.17,-0.34 2.78,-0.75c0.6,-0.4 1.61,-5.36 2.25,-11.02c0.63,-5.65 1.15,-11.17 1.15,-12.25c0,-1.08 -0.56,-1.96 -1.23,-1.96c-0.68,0 -6.53,5.28 -13,11.73c-6.48,6.46 -11.77,12.08 -11.77,12.5c0,0.43 1.64,0.77 3.63,0.77c2,0 5.35,-0.51 7.44,-1.14c3.2,-0.96 4.05,-0.88 5.43,0.5c0.91,0.9 2.4,1.63 3.32,1.62zm-373.97,-25.98c1.01,0 2.65,-0.9 3.65,-2c0.99,-1.09 4.1,-3.07 6.9,-4.38c2.81,-1.32 7.64,-4.58 10.75,-7.26c3.11,-2.67 8.75,-8.68 12.53,-13.36c3.79,-4.68 7.88,-9.92 9.1,-11.65c1.22,-1.74 2.22,-3.83 2.22,-4.66c0,-0.82 -1.4,-1.98 -3.11,-2.58c-1.72,-0.6 -6.84,-1.62 -11.38,-2.28c-7.31,-1.06 -8.79,-0.99 -12.84,0.55c-2.52,0.96 -5.89,3.24 -7.49,5.07c-1.61,1.83 -6.46,6.19 -10.78,9.69c-7.16,5.79 -7.63,6.39 -5.28,6.66c1.42,0.17 6.59,-1.11 11.48,-2.84c4.9,-1.74 9.78,-3.41 10.86,-3.73c1.82,-0.53 1.8,-0.37 -0.31,2.31c-1.52,1.92 -2.07,3.64 -1.68,5.19c0.32,1.27 0.05,3.31 -0.6,4.54c-0.65,1.23 -4.48,5.75 -8.52,10.06c-4.04,4.31 -7.35,8.47 -7.35,9.25c0,0.78 0.83,1.42 1.85,1.42zm301.65,-79.25c-6.05,-0.02 -13.57,-0.32 -16.71,-0.66c-3.14,-0.33 -6.19,-1.09 -6.78,-1.68c-0.59,-0.59 -0.83,-1.71 -0.53,-2.5c0.3,-0.78 2.5,-2.65 4.89,-4.16c2.39,-1.51 4.81,-2.75 5.38,-2.75c0.57,0 1.3,0.68 1.61,1.5c0.36,0.93 1.88,1.5 3.99,1.5c1.87,0 3.97,-0.68 4.66,-1.51c0.76,-0.92 1.03,-2.88 0.68,-5c-0.42,-2.62 -0.21,-3.49 0.86,-3.49c0.78,0 5.28,3.43 9.98,7.61c4.71,4.19 8.39,8.12 8.19,8.73c-0.2,0.61 -1.46,1.41 -2.79,1.78c-1.34,0.38 -7.38,0.66 -13.43,0.63zm145.44,0.25c0.55,0 4.72,-3.73 9.28,-8.29c4.55,-4.56 13.55,-12.32 19.98,-17.25c6.44,-4.93 17.46,-13.53 24.5,-19.11c7.04,-5.58 15.25,-12.66 18.24,-15.73c2.99,-3.06 5.11,-5.9 4.7,-6.31c-0.41,-0.41 -3.08,0.07 -5.94,1.07c-2.86,1 -8.91,3.54 -13.44,5.65c-4.53,2.11 -11.96,6.24 -16.5,9.18c-4.54,2.94 -11.41,6.54 -15.26,8.01c-3.85,1.47 -9.92,3.18 -13.5,3.79c-3.58,0.62 -10.1,2.03 -14.5,3.14c-4.4,1.1 -11.15,3.32 -15,4.93c-3.85,1.6 -8.46,4.29 -10.25,5.97c-1.79,1.68 -3.25,3.7 -3.25,4.5c0,1.11 1.37,1.44 5.75,1.39c3.16,-0.03 7.77,-0.42 10.25,-0.87c2.48,-0.44 5.4,-1.17 6.5,-1.62c1.39,-0.57 0.87,0.45 -1.7,3.32c-2.04,2.27 -4.92,5.96 -6.4,8.2c-1.48,2.24 -2.42,4.34 -2.09,4.67c0.33,0.34 1.41,0.25 2.4,-0.2c0.98,-0.44 2.52,-0.88 3.41,-0.98c1.12,-0.12 1.47,0.4 1.13,1.68c-0.38,1.47 0.08,1.86 2.2,1.86c1.47,0 3.56,-0.47 4.63,-1.04c1.63,-0.87 2.09,-0.63 2.9,1.5c0.54,1.4 1.42,2.54 1.96,2.54zm35.51,-2.36c0.58,-0.23 3.01,-1.21 5.4,-2.18c3.54,-1.43 4.5,-1.51 5.17,-0.43c0.48,0.78 2.78,1.35 5.65,1.39c3.49,0.05 6.46,-0.76 10.71,-2.93c5.58,-2.84 5.93,-2.9 7,-1.15c0.61,1.01 1.63,2.56 2.26,3.46c1,1.41 1.95,0.88 7.5,-4.22c3.5,-3.21 6.78,-6.72 7.3,-7.79c0.67,-1.4 0.53,-2.19 -0.5,-2.84c-0.79,-0.49 -3.92,-1.42 -6.94,-2.06c-4.25,-0.9 -7.2,-0.88 -13,0.08c-4.12,0.68 -11.04,2.53 -15.37,4.11c-4.34,1.58 -10.07,4.28 -12.75,6c-3.44,2.21 -4.88,3.78 -4.88,5.36c0,1.22 0.31,2.54 0.7,2.92c0.38,0.39 1.17,0.51 1.75,0.28zm-267.95,-3.33c-3.85,0.29 -9.24,0.14 -11.97,-0.34c-2.74,-0.48 -6.9,-1.6 -9.25,-2.5c-2.37,-0.91 -4.28,-2.29 -4.28,-3.11c0,-0.82 2.36,-3.97 5.24,-7.02c2.88,-3.04 6.57,-6.22 8.2,-7.07c2.96,-1.53 2.96,-1.53 1.32,0.97c-1.45,2.21 -1.47,2.74 -0.17,4.59c1.08,1.53 2.61,2.12 5.69,2.18c2.32,0.05 5.79,0.18 7.72,0.29c3.03,0.17 3.55,-0.13 3.85,-2.29c0.19,-1.36 -0.48,-4.02 -1.49,-5.89c-1.01,-1.88 -3.13,-3.96 -4.72,-4.63c-1.63,-0.69 -2.43,-1.5 -1.83,-1.87c0.59,-0.37 2.72,0.78 4.73,2.55c2.01,1.76 5.9,6.53 8.64,10.6c4.74,7.02 4.9,7.46 3.15,8.86c-1,0.81 -3.18,2.08 -4.83,2.81c-1.65,0.74 -6.15,1.58 -10,1.87zm73.72,-25.33c0.7,-0.01 3.27,-0.93 5.7,-2.03c2.62,-1.19 8.15,-5.75 13.59,-11.23c5.69,-5.72 10.53,-11.69 12.75,-15.72c1.97,-3.57 5.25,-10.77 7.3,-16c2.04,-5.23 5.11,-12.2 6.82,-15.5c3.12,-6 3.12,-6 3.42,0.24c0.16,3.43 -0.12,8.51 -0.62,11.29c-0.67,3.64 -0.61,4.96 0.2,4.72c0.62,-0.18 2.55,-3.13 4.3,-6.55c1.96,-3.84 3.4,-8.43 3.76,-11.96c0.32,-3.16 1.06,-8.67 1.64,-12.24c0.58,-3.57 3.92,-15.28 7.41,-26c3.8,-11.65 8.04,-27.55 10.54,-39.49c2.31,-10.99 5.71,-25.53 7.57,-32.31c1.86,-6.78 4.51,-18 5.89,-24.94c1.38,-6.94 2.51,-13.69 2.51,-15c0,-1.38 -0.43,-2.11 -1.03,-1.74c-0.57,0.35 -3.66,5.89 -6.88,12.31c-3.21,6.42 -7.5,15.72 -9.52,20.67c-2.02,4.95 -5.53,12.94 -7.79,17.75c-2.26,4.81 -4.55,8.75 -5.07,8.75c-0.59,0 -0.7,-2.43 -0.28,-6.25c0.38,-3.44 2.67,-15.54 5.1,-26.89c2.42,-11.35 5.98,-29.15 7.91,-39.56c1.94,-10.41 4.62,-22.72 5.97,-27.36c1.35,-4.64 3.5,-11.32 4.77,-14.84c1.28,-3.52 3.07,-6.87 3.99,-7.45c1.2,-0.75 5.01,-0.43 13.66,1.16c6.6,1.2 14.78,2.19 18.19,2.19c3.4,0 8.96,-0.71 12.34,-1.58c3.38,-0.87 7.6,-2.27 9.39,-3.12c1.79,-0.84 3.25,-2 3.25,-2.59c0,-0.58 -0.69,-1.81 -1.53,-2.74c-1.43,-1.58 -2.11,-1.54 -10.61,0.67c-5.72,1.49 -11.9,2.36 -16.72,2.35c-4.2,0 -10.57,-0.46 -14.14,-1.02c-3.57,-0.55 -10.39,-1.9 -15.15,-3c-4.76,-1.09 -9.35,-1.72 -10.2,-1.39c-0.92,0.35 -3.43,6.27 -6.25,14.73c-4.07,12.21 -5.2,14.55 -8.27,17.17c-1.96,1.66 -6.45,5.72 -9.99,9.02c-3.53,3.3 -7.23,7.8 -8.21,10c-0.98,2.2 -4.33,15.47 -7.44,29.5c-3.11,14.03 -7.22,31.8 -9.13,39.5c-1.91,7.7 -5.03,19.69 -6.93,26.65c-1.9,6.95 -4.79,19.4 -6.43,27.67c-1.63,8.26 -5.03,21.69 -7.54,29.85c-2.91,9.43 -7.61,21.21 -12.9,32.33c-4.57,9.62 -8.58,18.29 -8.91,19.25c-0.32,0.96 -0.14,1.75 0.4,1.75c0.55,0 3.06,-1.9 5.58,-4.22c2.52,-2.33 8.3,-8.74 12.84,-14.25c4.55,-5.52 9.29,-10.93 10.54,-12.03c2.27,-2 2.27,-2 1.59,2c-0.38,2.2 -2.06,8.71 -3.75,14.48c-1.68,5.76 -5.72,15.73 -8.96,22.16c-3.25,6.43 -6.18,13.07 -6.52,14.75c-0.33,1.68 -0.34,3.74 -0.02,4.58c0.32,0.84 1.16,1.52 1.87,1.51zm57.53,-18.51c2.06,-1.53 5.48,-4.39 7.58,-6.37c2.11,-1.98 4.78,-4.9 5.93,-6.5c1.55,-2.15 1.67,-2.66 0.47,-1.99c-0.89,0.5 -5.24,4.2 -9.67,8.22c-4.43,4.02 -8.06,7.78 -8.06,8.36c0,0.57 1.69,-0.2 3.75,-1.72zm-301.52,-0.47c-0.31,0 -0.38,-0.17 -0.15,-0.37c0.23,-0.2 4.47,-1.83 9.42,-3.62c4.95,-1.78 9.37,-3.59 9.82,-4c0.46,-0.42 -0.74,-1.72 -2.65,-2.9c-1.91,-1.18 -3.74,-2.85 -4.07,-3.71c-0.33,-0.86 -0.6,-6.72 -0.6,-13.03c0,-8.33 0.42,-12.28 1.53,-14.42c1.23,-2.39 2.17,-2.95 4.94,-2.95c1.88,0 3.68,-0.44 4.01,-0.97c0.33,-0.53 4.03,-3.77 8.22,-7.19c7.62,-6.23 7.62,-6.23 11.46,-1.91c2.11,2.38 3.84,5.2 3.84,6.28c0,1.07 -2.7,6.07 -6,11.12c-3.3,5.04 -6,9.95 -6,10.92c0,0.96 0.24,1.75 0.52,1.75c0.29,0 3.11,-2.63 6.25,-5.84c4.12,-4.2 7.14,-6.31 10.74,-7.5c2.76,-0.91 5.57,-2.56 6.26,-3.66c0.69,-1.1 2.12,-2 3.18,-2c1.06,0 2.22,0.47 2.57,1.04c0.37,0.6 -1.9,2.14 -5.33,3.62c-3.61,1.55 -6.5,3.55 -7.29,5.02c-1.1,2.06 -1.08,2.6 0.15,3.37c0.8,0.51 3.25,0.93 5.45,0.93c4,0.02 4,0.02 4,4.25c0,3.02 0.44,4.31 1.55,4.53c0.93,0.19 2.17,-0.99 3.12,-2.98c0.86,-1.8 3.2,-5.24 5.2,-7.62c2,-2.39 3.63,-4.74 3.63,-5.22c0,-0.47 -0.71,-1.44 -1.57,-2.15c-0.87,-0.71 -2.44,-2.08 -3.5,-3.04c-1.06,-0.96 -2.27,-1.8 -2.68,-1.87c-0.41,-0.06 -3.45,-3.07 -6.75,-6.68c-6,-6.56 -6,-6.56 4.27,1.24c5.65,4.29 11.27,9.19 12.5,10.88c1.23,1.69 3.58,5.57 5.24,8.62c3,5.56 3,5.56 8.25,5.24c2.88,-0.18 5.21,0.05 5.17,0.5c-0.03,0.45 -2.58,2.96 -5.67,5.58c-4.38,3.72 -7.58,5.39 -14.68,7.65c-4.99,1.58 -13.71,3.38 -19.37,3.99c-5.66,0.6 -14.57,1.1 -19.8,1.1c-7.12,0 -12.68,0.76 -22.07,3c-6.91,1.65 -12.81,3 -13.11,3zm271.52,-107c-0.68,0 -0.81,-2.39 -0.4,-6.87c0.35,-3.78 1.78,-11.28 3.18,-16.66c1.4,-5.38 2.96,-10.5 3.48,-11.37c0.64,-1.11 0.94,0.46 0.96,5.06c0.02,3.67 -0.6,9.97 -1.38,14c-0.77,4.04 -2.17,9.25 -3.1,11.59c-0.94,2.34 -2.17,4.25 -2.74,4.25zm-19.9,-25.38c1.15,-1.03 3.74,-6.12 5.74,-11.3c2.01,-5.17 3.41,-9.66 3.1,-9.96c-0.3,-0.3 -1.74,1.34 -3.2,3.66c-1.46,2.31 -3.46,6.09 -4.45,8.38c-0.98,2.3 -2.13,5.74 -2.54,7.64c-0.75,3.46 -0.75,3.46 1.35,1.58zm139.72,-92.52c-4.58,9.4 -4.58,9.4 -4.12,4.12c0.26,-2.91 0.21,-5.94 -0.1,-6.75c-0.31,-0.81 -1.15,-1.47 -1.88,-1.47c-0.72,0 -2.29,1.6 -3.5,3.55c-1.21,1.96 -2.43,3.33 -2.71,3.05c-0.27,-0.28 -0.2,-2.95 0.18,-5.94c0.37,-2.99 1.22,-6.18 1.88,-7.08c0.98,-1.35 2.24,-1.53 6.84,-0.99c3.09,0.36 6.16,0.99 6.8,1.39c0.84,0.51 -0.16,3.48 -3.39,10.12z" fill="#3444bf" fill-rule="evenodd" id="svg_1"/>
 </g></svg>